<svg width="86" height="16" viewBox="0 0 86 16" fill="none" xmlns="http://www.w3.org/2000/svg"><path d="M43.813 7.5c.172.038.345.076.518.076 1.245.194 2.283.735 3.043 1.855.969 1.468.865 3.826-.795 5.14-.864.695-1.833.927-2.836.927-1.832.038-3.596 0-5.429 0-1.832 0-.172-.039-.31-.155.172-.038.345-.077.483-.155.519-.231.796-.734.796-1.313V2.167c0-.966-.38-1.469-1.314-1.585-.035 0-.07-.038-.139-.154.139 0 .242-.039.38-.039 1.557 0 3.113-.077 4.634.039 1.418.116 2.732.618 3.458 2.125.727 1.507.208 3.362-1.14 4.135-.416.231-.9.463-1.35.734-.034 0-.069.077-.069.077h.07zm-3.043 3.322c0 .889-.035 1.739.034 2.628.035.386.139.811.38 1.082.277.27.692.425 1.073.54 1.21.194 2.386 0 3.215-1.004.9-1.082 1.072-2.357.657-3.787-.31-.927-.864-1.545-1.66-1.932-1.071-.54-2.247-.54-3.423-.464-.276 0-.311.194-.311.426v2.55l.035-.039zm0-6.646v2.318c0 .928-.035.89.726.812.657-.039 1.383-.039 1.936-.348 1.556-.811 1.868-2.55 1.314-4.096-.588-1.7-2.04-2.357-3.596-1.932-.311.077-.45.232-.38.541v2.705zM26.626 15.961c-1.556-.038-3.043-.463-4.322-1.39a8.049 8.049 0 01-2.559-3.053c-.795-1.585-.968-3.246-.692-4.985.208-1.468.83-2.82 1.833-3.864 1.245-1.391 2.767-2.241 4.6-2.55 1.936-.348 3.7.077 5.325 1.159 1.175.734 2.04 1.777 2.697 3.091.726 1.584.968 3.246.691 4.946a7.477 7.477 0 01-1.763 3.864c-1.176 1.353-2.524 2.241-4.219 2.59-.553.154-1.072.192-1.556.231l-.035-.039zm-5.982-8.114c-.034 1.7.208 3.168.9 4.56 1.037 1.97 2.627 2.936 4.737 3.09.553.04 1.14-.077 1.729-.192 1.072-.194 2.005-.773 2.766-1.662 1.21-1.391 1.59-3.169 1.729-4.985.07-1.159-.07-2.28-.311-3.4-.242-1.198-.83-2.241-1.556-3.091-1.003-1.12-2.283-1.546-3.631-1.7-.692-.04-1.418.077-2.11.27-1.59.386-2.731 1.507-3.423 3.091-.588 1.198-.864 2.55-.83 3.98v.039zM2.87 3.17v8.038c0 .966.07 1.893.138 2.859.035.696.415 1.12 1.072 1.275.07 0 .173.077.277.193h-3.25v-.077a.344.344 0 01.172-.077c.761 0 1.142-.773 1.142-1.507.034-1.507.034-3.014.034-4.521 0-1.507-.034-4.135 0-6.221.035-.966-.553-1.353-1.072-1.855C1.072.93.657.814.243.62.206.621.102.582 0 .466.173.466.242.428.346.428h2.11c.172 0 .38.154.518.232 1.037 1.159 2.04 2.357 3.043 3.555a316.576 316.576 0 013.32 3.902l4.045 4.753c.035.039.07.155.139.193h.138c0-.154.035-.27.035-.386V2.824c0-.425-.07-.928-.173-1.353-.07-.502-.415-.734-.83-.811-.208 0-.38-.039-.554-.194h3.458v.078c-.172.038-.345.154-.518.193-.484.077-.726.425-.83.927-.07.58-.173 1.198-.173 1.855V15.42c0 .155 0 .31-.035.58L3.043 3.094l-.173.077zM52.043.428h8.022c.323 0 .484.18.484.54v1.74c-.173-.348-.346-.657-.484-.966a1.62 1.62 0 00-1.418-.773C57.507.93 56.4.93 55.224.93c-1.176 0-.311.155-.242.348V7.19c0 .412.207.618.622.618h2.04c.38 0 .83-.038 1.176-.193.484-.193.865-.464.9-1.16h.069v3.17h-.07c-.034-.155-.069-.31-.138-.426-.242-.58-.692-.888-1.314-.888h-3.043c-.207 0-.311.077-.311.347 0 1.778.034 3.594.034 5.371 0 1.778.554 1.16 1.176 1.16 1.003 0 1.937-.04 2.94-.078.795-.038 1.313-.618 1.59-1.39.035-.078.07-.194.208-.271v.27c-.104.425-.173.928-.277 1.353-.07.347-.139.58-.553.58h-7.504c-.139 0-.277 0-.45-.078.035-.039.139-.077.173-.155.657-.154 1.072-.772 1.072-1.468 0-3.825.035-7.65 0-11.476 0-1.082-.173-1.546-1.418-1.855.07-.039.07-.155.07-.155l.069-.038zM86 13.372l-.484 2.242h-8.334v-.078c.07-.038.138-.077.208-.077.484-.039.726-.425.899-.811.138-.387.173-.85.173-1.276 0-3.516.034-7.07 0-10.626 0-1.004-.173-1.584-1.21-1.932-.07 0-.174-.038-.208-.193h4.392v.077c-.173.039-.346.155-.52.194-.622.193-.968.695-.968 1.39V13.76c0 .734.45 1.275 1.073 1.39a8.994 8.994 0 003.215 0c.554-.076.969-.54 1.21-1.081.139-.232.243-.502.347-.734h.172l.035.038zm-11.584-.077c-.139.696-.277 1.314-.38 1.97-.035.271-.208.387-.52.387h-7.503c-.139 0-.277 0-.346-.038l-.07-.155c.035 0 .14-.039.174-.039.726-.038 1.175-1.004 1.175-1.7V2.514c0-.927-.31-1.39-1.14-1.7-.07-.038-.208-.077-.312-.232h4.323V.66a1.861 1.861 0 00-.554.193c-.553.309-.864.811-.864 1.507v11.012c0 .387.138.773.242 1.121.277.618.83.734 1.349.734.83.039 1.66 0 2.49-.116.83-.038 1.313-.657 1.66-1.468.034-.155.138-.27.172-.425l.138.077h-.034z" fill="#fff"/></svg>