<svg width="24" height="24" viewBox="0 0 24 24" fill="none" xmlns="http://www.w3.org/2000/svg"><path d="M18.523 5.974A8.426 8.426 0 0012.535 3.5c-4.665-.001-8.467 3.782-8.467 8.422 0 1.488.393 2.933 1.128 4.208L4 20.5l4.485-1.173a8.502 8.502 0 004.05 1.028c4.663 0 8.465-3.782 8.465-8.423a8.35 8.35 0 00-2.477-5.958zm-5.989 12.953a7.085 7.085 0 01-3.588-.977l-.256-.153-2.665.697.709-2.584-.171-.264a6.995 6.995 0 01-1.077-3.723c0-3.858 3.161-7.003 7.04-7.003 1.879 0 3.647.73 4.971 2.057a6.951 6.951 0 012.06 4.955c.016 3.859-3.144 6.995-7.023 6.995zm3.861-5.236c-.213-.102-1.255-.612-1.443-.688-.197-.068-.333-.102-.479.102a13.3 13.3 0 01-.666.825c-.12.144-.248.161-.461.05-.214-.101-.897-.331-1.7-1.045-.632-.561-1.051-1.25-1.18-1.462-.119-.213-.016-.323.095-.434.094-.093.213-.246.316-.365.102-.119.145-.213.213-.348.069-.145.035-.264-.017-.366a69.75 69.75 0 01-.649-1.564c-.17-.408-.35-.357-.478-.365h-.41a.77.77 0 00-.564.263c-.188.213-.735.723-.735 1.76s.76 2.04.863 2.175c.103.145 1.495 2.27 3.614 3.18.504.22.897.348 1.204.441.504.162.965.136 1.333.085.41-.059 1.255-.51 1.426-1.003.18-.492.18-.909.12-1.002-.06-.094-.188-.136-.402-.239z" fill="#000"/></svg>